<svg width="648" height="629" viewBox="0 0 648 629" fill="none" xmlns="http://www.w3.org/2000/svg">
<path d="M646.104 348.333L648 340.282C628.565 190.136 539.921 42.3591 375.906 7.78302C357.893 3.99386 340.828 1.62564 324.237 0.67835C148.846 -10.6891 35.0783 122.405 1.89612 280.129L0 288.181C19.4353 438.326 108.079 586.103 272.094 620.679C476.401 664.254 609.604 521.214 646.104 348.333ZM70.1565 320.388C91.4879 219.029 198.619 112.932 335.614 129.036C336.088 129.036 336.088 129.036 336.088 129.036C343.198 129.983 350.783 130.931 358.367 132.825L362.634 133.772C474.979 158.876 546.557 217.134 577.843 308.547C555.09 415.117 437.056 527.371 290.107 496.111C287.263 495.637 283.944 494.69 281.1 494.216H280.626C275.886 493.269 270.672 491.848 265.931 490.427C164.963 462.955 99.5464 406.118 70.1565 320.388Z" fill="#2D2A29" fill-opacity="0.1"/>
<path d="M409.563 306.653C400.082 353.07 371.166 396.645 324.237 392.382C280.152 388.12 242.704 356.385 238.912 306.653C242.23 260.236 280.626 221.397 324.237 220.923C373.536 220.449 410.985 262.604 409.563 306.653Z" fill="#2D2A29" fill-opacity="0.1"/>
</svg>
