<svg width="627" height="139" viewBox="0 0 627 139" fill="none" xmlns="http://www.w3.org/2000/svg">
<path d="M0.888885 97.3344V91.1363H7.94321L14.188 89.4145V7.9199L12.4534 6.19818H0.888885V0H41.7114V6.19818H34.6571L28.4123 7.9199V89.4145L30.147 91.1363H41.7114V97.3344H0.888885Z" fill="#2D2A29"/>
<path d="M99.5338 91.1363H104.853L108.438 89.4145V60.1453C108.438 50.3889 101.384 43.2725 92.4794 43.2725H85.3095L76.4048 47.749V91.1363H84.3843V97.3344H55.1262V91.1363H60.4459L64.0309 89.4145V46.0272H53.3916C57.7861 37.1891 68.541 31.9091 76.5205 31.9091V41.6656C81.8401 37.1891 87.1598 33.7456 93.4046 31.9091H94.3298C107.629 31.9091 120.928 41.6656 120.928 56.7019V91.251H128.908V97.4492H99.5338V91.1363Z" fill="#2D2A29"/>
<path d="M160.825 99.5153C154.234 99.5153 147.526 95.6127 145.329 85.8563L146.601 83.2163V41.5508H136.771C141.166 31.7944 150.07 25.5962 160.71 22.9562L157.703 34.4343H181.988V42.469H158.859V79.6581C158.859 85.8563 162.444 88.4963 166.839 88.4963H183.723C177.71 94.6944 170.54 99.5153 160.825 99.5153Z" fill="#2D2A29"/>
<path d="M233.682 47.749L228.362 53.0289L221.308 45.9125C215.988 46.8307 208.818 52.1107 208.818 62.7853V91.1363H219.457V97.3345H187.424V91.1363H192.743L196.328 89.4146V46.0272H185.689C190.084 37.1891 200.839 31.9091 208.818 31.9091V48.782C212.403 42.5838 219.457 35.4674 228.362 31.9091L233.682 37.1891C235.416 38.9108 236.341 40.7473 236.341 42.469C236.341 44.1907 235.416 46.0272 233.682 47.749Z" fill="#2D2A29"/>
<path d="M307.81 69.5574L308.041 68.7539C305.96 52.9141 296.592 37.4187 279.246 33.6309C257.504 29.0396 243.396 44.1908 239.579 62.3262L239.348 63.2444C241.43 79.0842 250.797 94.5797 268.144 98.3674C289.769 102.844 303.994 87.8076 307.81 69.5574ZM246.749 66.5731C249.062 55.8984 260.396 44.7647 274.851 46.4864C275.661 46.6012 276.354 46.7159 277.164 46.8307L277.627 46.9455C289.538 49.5855 297.171 55.6689 300.524 65.3105C298.096 76.559 285.606 88.3815 269.994 85.0528C269.647 84.9381 269.416 84.9381 269.069 84.8233C268.606 84.7085 268.028 84.5937 267.565 84.4789C256.811 81.6094 249.872 75.6408 246.749 66.5731Z" fill="#2D2A29"/>
<path d="M343.775 98.2526H320.993L315.674 78.2806L321.572 76.5589L324.231 85.971C330.476 91.2509 337.531 92.1692 344.701 92.1692C350.945 89.5292 353.605 85.0527 353.605 80.6911C353.605 74.4929 348.285 72.7712 339.381 70.0164C330.476 67.3764 319.837 63.8182 319.837 53.1436C319.837 44.3054 330.476 36.2708 340.306 33.6308H362.51V52.2253H356.265V44.3054C351.87 41.6655 346.435 39.829 339.381 39.829C335.796 41.0916 331.401 44.3054 331.401 48.6671C331.401 54.8653 337.646 56.587 347.36 59.3418C357.075 61.9817 365.17 66.4582 365.17 77.0181C365.17 85.8562 356.265 94.6943 343.775 98.2526Z" fill="#2D2A29"/>
<path d="M419.291 97.3344H398.822V132.802H408.652V139H377.544V132.802H382.863L386.448 131.08V45.109H375.809C380.203 36.2708 390.958 30.9909 398.938 30.9909V41.2064C403.332 37.1891 410.502 33.6308 418.482 31.7943H419.407C434.556 35.3526 446.93 46.8307 446.93 63.7035C446.815 81.4946 432.706 92.0545 419.291 97.3344ZM418.482 43.3872H408.768L398.938 46.6011V85.8563C403.332 89.4145 411.427 91.1362 417.557 91.1362H419.291C427.271 86.6597 433.516 77.8216 433.516 66.3435C433.516 53.9471 425.536 46.9455 418.482 43.3872Z" fill="#2D2A29"/>
<path d="M507.297 57.5056L470.869 69.5576C471.794 78.7401 478.848 84.9383 485.093 88.4965H500.242L510.882 84.9383V88.4965C504.637 94.6946 495.732 99.9746 481.508 99.9746H478.848C467.284 94.6946 456.644 83.1018 456.644 68.0654C456.644 50.3891 468.209 37.9928 483.243 31.7946H484.168C498.392 31.7946 509.957 39.7145 511.691 53.0291L507.297 57.5056ZM483.243 38.911C475.263 43.3875 469.944 52.2256 469.944 61.982L495.732 56.1282L499.317 52.57C498.392 46.0274 491.338 38.911 483.243 38.911Z" fill="#2D2A29"/>
<path d="M548.119 100.089H543.725C531.235 95.6126 520.596 82.4128 520.596 68.1799C520.596 48.6671 535.745 37.189 548.119 32.7125H560.609C568.588 32.7125 573.099 37.189 573.099 41.5507C573.099 43.8463 571.364 46.8306 569.514 48.3228L547.31 40.7472C540.256 44.3054 534.011 51.4219 534.011 63.8182C534.011 75.2963 540.256 84.1345 549.97 88.611H563.269L573.908 85.0527V88.611C567.663 94.6944 558.759 100.089 548.119 100.089Z" fill="#2D2A29"/>
<path d="M603.282 99.5153C596.69 99.5153 589.983 95.6127 587.785 85.8563L589.058 83.2163V41.5508H579.343C583.738 31.7944 592.643 25.5962 603.282 22.9562L600.275 34.4343H624.561V42.469H601.432V79.6581C601.432 85.8563 605.017 88.4963 609.411 88.4963H626.295C620.166 94.6944 612.996 99.5153 603.282 99.5153Z" fill="#2D2A29"/>
<path d="M282.534 64.9853C281.497 69.8749 278.501 74.4234 273.547 73.9685C268.938 73.5137 264.905 70.2161 264.559 64.9853C264.905 60.0957 268.938 56.1159 273.547 56.0021C278.732 55.8884 282.65 60.3232 282.534 64.9853Z" fill="#2D2A29"/>
</svg>
